<mxfile host="app.diagrams.net" agent="Mozilla/5.0 (X11; Linux x86_64) AppleWebKit/537.36 (KHTML, like Gecko) Chrome/131.0.0.0 Safari/537.36" version="26.0.6">
  <diagram name="Page-1" id="uhOMPdyf5lZJkekloUHe">
    <mxGraphModel dx="276" dy="147" grid="1" gridSize="10" guides="1" tooltips="1" connect="1" arrows="1" fold="1" page="1" pageScale="1" pageWidth="827" pageHeight="1169" math="1" shadow="0">
      <root>
        <mxCell id="0" />
        <mxCell id="1" parent="0" />
        <mxCell id="-KO7WBwcn1OhaeG141WR-6" value="" style="endArrow=none;html=1;rounded=0;" edge="1" parent="1">
          <mxGeometry width="50" height="50" relative="1" as="geometry">
            <mxPoint x="340" y="610" as="sourcePoint" />
            <mxPoint x="340" y="560" as="targetPoint" />
          </mxGeometry>
        </mxCell>
        <mxCell id="-KO7WBwcn1OhaeG141WR-9" value="" style="endArrow=none;html=1;rounded=0;" edge="1" parent="1">
          <mxGeometry width="50" height="50" relative="1" as="geometry">
            <mxPoint x="420" y="637" as="sourcePoint" />
            <mxPoint x="380" y="630" as="targetPoint" />
          </mxGeometry>
        </mxCell>
        <mxCell id="-KO7WBwcn1OhaeG141WR-10" value="" style="endArrow=none;html=1;rounded=0;dashed=1;dashPattern=1 1;" edge="1" parent="1">
          <mxGeometry width="50" height="50" relative="1" as="geometry">
            <mxPoint x="460" y="620" as="sourcePoint" />
            <mxPoint x="420" y="637" as="targetPoint" />
          </mxGeometry>
        </mxCell>
        <mxCell id="-KO7WBwcn1OhaeG141WR-11" value="" style="endArrow=none;html=1;rounded=0;" edge="1" parent="1">
          <mxGeometry width="50" height="50" relative="1" as="geometry">
            <mxPoint x="370" y="530" as="sourcePoint" />
            <mxPoint x="340" y="560" as="targetPoint" />
          </mxGeometry>
        </mxCell>
        <mxCell id="-KO7WBwcn1OhaeG141WR-12" value="" style="endArrow=none;html=1;rounded=0;dashed=1;dashPattern=1 1;" edge="1" parent="1">
          <mxGeometry width="50" height="50" relative="1" as="geometry">
            <mxPoint x="410" y="520" as="sourcePoint" />
            <mxPoint x="370" y="530" as="targetPoint" />
          </mxGeometry>
        </mxCell>
        <mxCell id="-KO7WBwcn1OhaeG141WR-13" value="" style="endArrow=none;html=1;rounded=0;" edge="1" parent="1">
          <mxGeometry width="50" height="50" relative="1" as="geometry">
            <mxPoint x="440" y="530" as="sourcePoint" />
            <mxPoint x="410" y="520" as="targetPoint" />
          </mxGeometry>
        </mxCell>
        <mxCell id="-KO7WBwcn1OhaeG141WR-14" value="" style="endArrow=none;html=1;rounded=0;startArrow=blockThin;startFill=1;" edge="1" parent="1">
          <mxGeometry width="50" height="50" relative="1" as="geometry">
            <mxPoint x="440.0000000000002" y="530" as="sourcePoint" />
            <mxPoint x="480.0000000000002" y="570" as="targetPoint" />
          </mxGeometry>
        </mxCell>
        <mxCell id="-KO7WBwcn1OhaeG141WR-15" value="" style="endArrow=none;html=1;rounded=0;" edge="1" parent="1">
          <mxGeometry width="50" height="50" relative="1" as="geometry">
            <mxPoint x="460" y="620" as="sourcePoint" />
            <mxPoint x="480" y="570" as="targetPoint" />
          </mxGeometry>
        </mxCell>
        <mxCell id="-KO7WBwcn1OhaeG141WR-16" value="&lt;font style=&quot;font-size: 9px;&quot;&gt;\(P_1\)&lt;/font&gt;" style="text;html=1;align=center;verticalAlign=middle;whiteSpace=wrap;rounded=0;" vertex="1" parent="1">
          <mxGeometry x="321" y="550" width="20" height="18" as="geometry" />
        </mxCell>
        <mxCell id="-KO7WBwcn1OhaeG141WR-18" value="" style="endArrow=none;html=1;rounded=0;" edge="1" parent="1">
          <mxGeometry width="50" height="50" relative="1" as="geometry">
            <mxPoint x="380" y="630" as="sourcePoint" />
            <mxPoint x="340" y="610" as="targetPoint" />
          </mxGeometry>
        </mxCell>
        <mxCell id="-KO7WBwcn1OhaeG141WR-17" value="&lt;font style=&quot;font-size: 9px;&quot;&gt;\(P_2\)&lt;/font&gt;" style="text;html=1;align=center;verticalAlign=middle;whiteSpace=wrap;rounded=0;" vertex="1" parent="1">
          <mxGeometry x="317" y="595" width="30" height="30" as="geometry" />
        </mxCell>
        <mxCell id="-KO7WBwcn1OhaeG141WR-19" value="&lt;font style=&quot;font-size: 9px;&quot;&gt;\(P_3\)&lt;/font&gt;" style="text;html=1;align=center;verticalAlign=middle;whiteSpace=wrap;rounded=0;" vertex="1" parent="1">
          <mxGeometry x="374" y="630" width="10" height="10" as="geometry" />
        </mxCell>
        <mxCell id="-KO7WBwcn1OhaeG141WR-20" value="&lt;font style=&quot;font-size: 9px;&quot;&gt;\(P_4\)&lt;/font&gt;" style="text;html=1;align=center;verticalAlign=middle;whiteSpace=wrap;rounded=0;" vertex="1" parent="1">
          <mxGeometry x="410" y="637" width="20" height="10" as="geometry" />
        </mxCell>
        <mxCell id="-KO7WBwcn1OhaeG141WR-23" value="&lt;font style=&quot;font-size: 9px;&quot;&gt;\(P_{i+1}\)&lt;/font&gt;" style="text;html=1;align=center;verticalAlign=middle;whiteSpace=wrap;rounded=0;" vertex="1" parent="1">
          <mxGeometry x="440" y="520" width="20" height="8" as="geometry" />
        </mxCell>
        <mxCell id="-KO7WBwcn1OhaeG141WR-24" value="&lt;font style=&quot;font-size: 9px;&quot;&gt;\(P_{i}\)&lt;/font&gt;" style="text;html=1;align=center;verticalAlign=middle;whiteSpace=wrap;rounded=0;" vertex="1" parent="1">
          <mxGeometry x="477" y="568" width="20" as="geometry" />
        </mxCell>
        <mxCell id="-KO7WBwcn1OhaeG141WR-25" value="&lt;font style=&quot;font-size: 9px;&quot;&gt;\(P_{n}\)&lt;/font&gt;" style="text;html=1;align=center;verticalAlign=middle;whiteSpace=wrap;rounded=0;" vertex="1" parent="1">
          <mxGeometry x="354" y="514" width="30" height="14" as="geometry" />
        </mxCell>
        <mxCell id="-KO7WBwcn1OhaeG141WR-27" value="" style="endArrow=none;dashed=1;html=1;rounded=0;exitX=0.981;exitY=0.568;exitDx=0;exitDy=0;exitPerimeter=0;entryX=0.589;entryY=-0.003;entryDx=0;entryDy=0;entryPerimeter=0;strokeColor=#0000CC;" edge="1" parent="1" source="-KO7WBwcn1OhaeG141WR-16" target="-KO7WBwcn1OhaeG141WR-19">
          <mxGeometry width="50" height="50" relative="1" as="geometry">
            <mxPoint x="380" y="560" as="sourcePoint" />
            <mxPoint x="410" y="570" as="targetPoint" />
          </mxGeometry>
        </mxCell>
        <mxCell id="-KO7WBwcn1OhaeG141WR-28" value="" style="endArrow=none;dashed=1;html=1;rounded=0;entryX=0.5;entryY=0;entryDx=0;entryDy=0;strokeColor=#0000CC;" edge="1" parent="1" target="-KO7WBwcn1OhaeG141WR-20">
          <mxGeometry width="50" height="50" relative="1" as="geometry">
            <mxPoint x="340" y="560" as="sourcePoint" />
            <mxPoint x="419" y="640" as="targetPoint" />
          </mxGeometry>
        </mxCell>
        <mxCell id="-KO7WBwcn1OhaeG141WR-29" value="" style="endArrow=none;dashed=1;html=1;rounded=0;strokeColor=#0000CC;entryX=0;entryY=0;entryDx=0;entryDy=0;" edge="1" parent="1">
          <mxGeometry width="50" height="50" relative="1" as="geometry">
            <mxPoint x="340" y="560" as="sourcePoint" />
            <mxPoint x="460" y="620" as="targetPoint" />
          </mxGeometry>
        </mxCell>
        <mxCell id="-KO7WBwcn1OhaeG141WR-30" value="" style="endArrow=none;dashed=1;html=1;rounded=0;strokeColor=#0000CC;" edge="1" parent="1">
          <mxGeometry width="50" height="50" relative="1" as="geometry">
            <mxPoint x="340" y="560" as="sourcePoint" />
            <mxPoint x="480" y="570" as="targetPoint" />
          </mxGeometry>
        </mxCell>
        <mxCell id="-KO7WBwcn1OhaeG141WR-31" value="" style="endArrow=none;dashed=1;html=1;rounded=0;entryX=1;entryY=0.5;entryDx=0;entryDy=0;strokeColor=#0000CC;" edge="1" parent="1" target="-KO7WBwcn1OhaeG141WR-16">
          <mxGeometry width="50" height="50" relative="1" as="geometry">
            <mxPoint x="440" y="530" as="sourcePoint" />
            <mxPoint x="439" y="610" as="targetPoint" />
          </mxGeometry>
        </mxCell>
        <mxCell id="-KO7WBwcn1OhaeG141WR-32" value="" style="shape=waypoint;sketch=0;fillStyle=solid;size=6;pointerEvents=1;points=[];fillColor=#f8cecc;resizable=0;rotatable=0;perimeter=centerPerimeter;snapToPoint=1;strokeWidth=0;perimeterSpacing=0;strokeColor=#b85450;spacing=0;fontSize=6;dashed=1;" vertex="1" parent="1">
          <mxGeometry x="420" y="546" width="20" height="20" as="geometry" />
        </mxCell>
        <mxCell id="-KO7WBwcn1OhaeG141WR-33" value="" style="endArrow=none;html=1;rounded=0;dashed=1;dashPattern=1 4;strokeColor=#EA6B66;entryX=0.58;entryY=0.919;entryDx=0;entryDy=0;entryPerimeter=0;" edge="1" parent="1" target="-KO7WBwcn1OhaeG141WR-32">
          <mxGeometry width="50" height="50" relative="1" as="geometry">
            <mxPoint x="340" y="560" as="sourcePoint" />
            <mxPoint x="440" y="530" as="targetPoint" />
          </mxGeometry>
        </mxCell>
        <mxCell id="-KO7WBwcn1OhaeG141WR-34" value="&lt;font style=&quot;font-size: 9px;&quot;&gt;\(q_1\)&lt;/font&gt;" style="text;html=1;align=center;verticalAlign=middle;whiteSpace=wrap;rounded=0;" vertex="1" parent="1">
          <mxGeometry x="430" y="546" width="10" as="geometry" />
        </mxCell>
        <mxCell id="-KO7WBwcn1OhaeG141WR-45" value="" style="endArrow=none;html=1;rounded=0;dashed=1;dashPattern=1 4;strokeColor=#EA6B66;" edge="1" parent="1">
          <mxGeometry width="50" height="50" relative="1" as="geometry">
            <mxPoint x="340" y="560" as="sourcePoint" />
            <mxPoint x="500" y="530" as="targetPoint" />
          </mxGeometry>
        </mxCell>
        <mxCell id="-KO7WBwcn1OhaeG141WR-49" style="edgeStyle=orthogonalEdgeStyle;rounded=0;orthogonalLoop=1;jettySize=auto;html=1;exitX=0;exitY=0;exitDx=0;exitDy=0;" edge="1" parent="1" source="-KO7WBwcn1OhaeG141WR-34" target="-KO7WBwcn1OhaeG141WR-34">
          <mxGeometry relative="1" as="geometry" />
        </mxCell>
        <mxCell id="-KO7WBwcn1OhaeG141WR-50" value="" style="shape=waypoint;sketch=0;fillStyle=solid;size=6;pointerEvents=1;points=[];fillColor=#f8cecc;resizable=0;rotatable=0;perimeter=centerPerimeter;snapToPoint=1;strokeWidth=0;perimeterSpacing=0;strokeColor=#b85450;spacing=0;fontSize=6;dashed=1;" vertex="1" parent="1">
          <mxGeometry x="490" y="520" width="20" height="20" as="geometry" />
        </mxCell>
        <mxCell id="-KO7WBwcn1OhaeG141WR-53" value="&lt;font style=&quot;font-size: 9px;&quot;&gt;\(q_2\)&lt;/font&gt;" style="text;html=1;align=center;verticalAlign=middle;whiteSpace=wrap;rounded=0;" vertex="1" parent="1">
          <mxGeometry x="503" y="524" width="10" as="geometry" />
        </mxCell>
        <mxCell id="-KO7WBwcn1OhaeG141WR-57" value="" style="endArrow=blockThin;html=1;rounded=0;entryX=0.591;entryY=0.582;entryDx=0;entryDy=0;entryPerimeter=0;dashed=1;dashPattern=8 8;startArrow=none;startFill=0;endFill=1;fillColor=#e1d5e7;strokeColor=#9673a6;" edge="1" parent="1" target="-KO7WBwcn1OhaeG141WR-50">
          <mxGeometry width="50" height="50" relative="1" as="geometry">
            <mxPoint x="480" y="570" as="sourcePoint" />
            <mxPoint x="533" y="520" as="targetPoint" />
          </mxGeometry>
        </mxCell>
        <mxCell id="-KO7WBwcn1OhaeG141WR-58" value="" style="endArrow=blockThin;html=1;rounded=0;dashed=1;dashPattern=8 8;endFill=1;fillColor=#e1d5e7;strokeColor=#9673a6;" edge="1" parent="1" target="-KO7WBwcn1OhaeG141WR-32">
          <mxGeometry width="50" height="50" relative="1" as="geometry">
            <mxPoint x="480" y="570" as="sourcePoint" />
            <mxPoint x="510" y="540" as="targetPoint" />
          </mxGeometry>
        </mxCell>
      </root>
    </mxGraphModel>
  </diagram>
</mxfile>
